<svg xmlns="http://www.w3.org/2000/svg" viewBox="0 0 512 512" width="512" height="512">
  <defs>
    <linearGradient id="bgGradient" x1="0%" y1="0%" x2="100%" y2="100%">
      <stop offset="0%" stop-color="#0b1221" />
      <stop offset="100%" stop-color="#134e79" />
    </linearGradient>
  </defs>

  <rect x="24" y="24" width="464" height="464" rx="100" fill="url(#bgGradient)" />
  <rect x="52" y="52" width="408" height="408" rx="80" fill="#0b1f3a" opacity="0.45" />

  <circle cx="256" cy="256" r="138" fill="none" stroke="#38bdf8" stroke-width="12" opacity="0.5" />
  <circle cx="256" cy="256" r="96" fill="none" stroke="#22d3ee" stroke-width="10" opacity="0.75" />

  <line x1="256" y1="118" x2="256" y2="156" stroke="#22d3ee" stroke-width="10" stroke-linecap="round" />
  <line x1="256" y1="356" x2="256" y2="394" stroke="#22d3ee" stroke-width="10" stroke-linecap="round" />
  <line x1="118" y1="256" x2="156" y2="256" stroke="#22d3ee" stroke-width="10" stroke-linecap="round" />
  <line x1="356" y1="256" x2="394" y2="256" stroke="#22d3ee" stroke-width="10" stroke-linecap="round" />

  <circle cx="256" cy="118" r="16" fill="#22d3ee" />
  <circle cx="256" cy="394" r="16" fill="#22d3ee" />
  <circle cx="118" cy="256" r="16" fill="#22d3ee" />
  <circle cx="394" cy="256" r="16" fill="#22d3ee" />

  <path d="M170 190 Q256 130 342 190" fill="none" stroke="#8b5cf6" stroke-width="12" stroke-linecap="round" stroke-dasharray="16 12" />
  <polygon points="332,174 354,191 327,203" fill="#8b5cf6" />

  <circle cx="256" cy="256" r="44" fill="#8b5cf6" />
  <polygon points="240,228 240,284 292,256" fill="#ffffff" />
</svg>
